<svg width="40" height="38" viewBox="0 0 40 38" fill="none" xmlns="http://www.w3.org/2000/svg">
<circle cx="19" cy="19" r="19" fill="#E01563"/>
<path fill-rule="evenodd" clip-rule="evenodd" d="M25.2083 9H30V11H26.7816L24.0128 23.6776H24V24H11V23.7519L8.80678 14.091L8.46924 13H24.3448L24.9151 10.3885L25.2083 9ZM11.0131 15H23.908L22.3792 22H12.6022L11.0131 15Z" fill="white"/>
<path d="M21 29C19.8954 29 19 28.1046 19 27C19 25.8954 19.8954 25 21 25C22.1046 25 23 25.8954 23 27C23 28.1046 22.1046 29 21 29Z" fill="white"/>
<path d="M12 27C12 28.1046 12.8954 29 14 29C15.1046 29 16 28.1046 16 27C16 25.8954 15.1046 25 14 25C12.8954 25 12 25.8954 12 27Z" fill="white"/>
<circle cx="33" cy="7" r="5.5" fill="#E01563" stroke="white" stroke-width="3"/>
</svg>
