<svg width="20" height="20" viewBox="0 0 20 20" fill="none" xmlns="http://www.w3.org/2000/svg">
<path d="M18.1762 0.784302H1.79953C1.23877 0.784639 0.784189 1.23945 0.784302 1.80043V18.1771C0.784639 18.7378 1.23945 19.1924 1.80043 19.1923H10.6175V12.0736H8.22659V9.2872H10.6175V7.23664C10.6175 4.85868 12.0692 3.56437 14.1904 3.56437C15.2064 3.56437 16.0795 3.6401 16.334 3.67392V6.15929H14.8713C13.7172 6.15929 13.4937 6.70768 13.4937 7.51258V9.2872H16.2531L15.8936 12.0736H13.4937V19.1923H18.1762C18.7372 19.1924 19.1922 18.7377 19.1923 18.1766C19.1923 18.1765 19.1923 18.1764 19.1923 18.1762V1.79953C19.1921 1.23877 18.7371 0.784189 18.1762 0.784302Z" fill="#E01563"/>
</svg>
