<svg width="30" height="30" viewBox="0 0 30 30" fill="none" xmlns="http://www.w3.org/2000/svg">
<circle cx="15" cy="15" r="15" fill="#D9D9D9"/>
<g clip-path="url(#clip0_1_969)">
<path d="M24.0909 14.0909H8.10385L8.8247 13.37C9.17973 13.015 9.17973 12.4394 8.8247 12.0844C8.46967 11.7294 7.89409 11.7294 7.53906 12.0844L5.26633 14.3571C4.9113 14.7121 4.9113 15.2877 5.26633 15.6427L7.53906 17.9155C7.71658 18.093 7.94924 18.1818 8.18185 18.1818C8.41452 18.1818 8.64718 18.093 8.8247 17.9155C9.17973 17.5604 9.17973 16.9849 8.8247 16.6298L8.10385 15.909H24.0909C24.593 15.909 25 15.502 25 15C25 14.4979 24.593 14.0909 24.0909 14.0909Z" fill="#656565"/>
</g>
<defs>
<clipPath id="clip0_1_969">
<rect width="20" height="20" fill="white" transform="translate(5 5)"/>
</clipPath>
</defs>
</svg>
