<svg width="20" height="20" viewBox="0 0 20 20" fill="none" xmlns="http://www.w3.org/2000/svg">
<path d="M19.4948 6.084C19.4503 5.07392 19.2869 4.37951 19.0529 3.77778C18.8116 3.13907 18.4402 2.56723 17.9536 2.09185C17.4783 1.60908 16.9027 1.23395 16.2713 0.996335C15.6661 0.762347 14.9753 0.599006 13.9653 0.554471C12.9476 0.506165 12.6246 0.494995 10.0436 0.494995C7.46265 0.494995 7.1396 0.506165 6.12575 0.5507C5.11567 0.595234 4.42125 0.758721 3.81967 0.992563C3.18082 1.23395 2.60897 1.60531 2.1336 2.09185C1.65083 2.56723 1.27584 3.14284 1.03808 3.77416C0.804095 4.37951 0.640754 5.07015 0.596219 6.08023C0.547913 7.09785 0.536743 7.42091 0.536743 10.0019C0.536743 12.5828 0.547913 12.9059 0.592448 13.9198C0.636982 14.9298 0.800469 15.6242 1.03446 16.226C1.27584 16.8647 1.65083 17.4365 2.1336 17.9119C2.60897 18.3947 3.18459 18.7698 3.8159 19.0074C4.42125 19.2414 5.1119 19.4047 6.12212 19.4493C7.13583 19.494 7.45903 19.505 10.04 19.505C12.621 19.505 12.944 19.494 13.9579 19.4493C14.9679 19.4047 15.6624 19.2414 16.2639 19.0074C17.5415 18.5135 18.5516 17.5034 19.0455 16.226C19.2794 15.6206 19.4429 14.9298 19.4874 13.9198C19.5319 12.9059 19.5431 12.5828 19.5431 10.0019C19.5431 7.42091 19.5393 7.09785 19.4948 6.084ZM17.7829 13.8455C17.742 14.7739 17.5861 15.2752 17.4561 15.6095C17.1366 16.4376 16.4794 17.0949 15.6512 17.4143C15.317 17.5443 14.812 17.7003 13.8872 17.741C12.8845 17.7857 12.5838 17.7967 10.0474 17.7967C7.51096 17.7967 7.20647 17.7857 6.20742 17.741C5.27901 17.7003 4.77767 17.5443 4.44345 17.4143C4.03132 17.262 3.65619 17.0206 3.3517 16.705C3.03604 16.3967 2.79466 16.0253 2.64234 15.6132C2.51236 15.279 2.35642 14.7739 2.31566 13.8493C2.27098 12.8466 2.25995 12.5457 2.25995 10.0093C2.25995 7.47284 2.27098 7.16835 2.31566 6.16944C2.35642 5.24104 2.51236 4.7397 2.64234 4.40547C2.79466 3.9932 3.03604 3.61821 3.35547 3.31358C3.66359 2.99792 4.03495 2.75654 4.44722 2.60436C4.78145 2.47439 5.28656 2.31844 6.21119 2.27754C7.21387 2.233 7.51473 2.22183 10.051 2.22183C12.5912 2.22183 12.8919 2.233 13.891 2.27754C14.8194 2.31844 15.3207 2.47439 15.655 2.60436C16.0671 2.75654 16.4422 2.99792 16.7467 3.31358C17.0624 3.62184 17.3038 3.9932 17.4561 4.40547C17.5861 4.7397 17.742 5.24466 17.7829 6.16944C17.8274 7.17212 17.8386 7.47284 17.8386 10.0093C17.8386 12.5457 17.8274 12.8428 17.7829 13.8455Z" fill="#E01563"/>
<path d="M10.0436 5.11841C7.34757 5.11841 5.16016 7.30568 5.16016 10.0018C5.16016 12.698 7.34757 14.8852 10.0436 14.8852C12.7397 14.8852 14.927 12.698 14.927 10.0018C14.927 7.30568 12.7397 5.11841 10.0436 5.11841ZM10.0436 13.1696C8.29454 13.1696 6.87582 11.751 6.87582 10.0018C6.87582 8.25265 8.29454 6.83407 10.0436 6.83407C11.7927 6.83407 13.2113 8.25265 13.2113 10.0018C13.2113 11.751 11.7927 13.1696 10.0436 13.1696Z" fill="#E01563"/>
<path d="M16.2602 4.92533C16.2602 5.55491 15.7498 6.06539 15.12 6.06539C14.4905 6.06539 13.98 5.55491 13.98 4.92533C13.98 4.29561 14.4905 3.78528 15.12 3.78528C15.7498 3.78528 16.2602 4.29561 16.2602 4.92533Z" fill="#E01563"/>
</svg>
