<svg width="43" height="38" viewBox="0 0 43 38" fill="none" xmlns="http://www.w3.org/2000/svg">
<circle cx="19" cy="19" r="19" fill="#F0F0F0"/>
<path fill-rule="evenodd" clip-rule="evenodd" d="M19.4761 13.6979L18.3891 12.6109C16.2412 10.463 12.7588 10.463 10.6109 12.6109C8.46303 14.7588 8.46303 18.2412 10.6109 20.3891L19.4497 29.2279L19.4515 29.2261L19.4779 29.2525L28.3167 20.4136C30.4646 18.2657 30.4646 14.7833 28.3167 12.6354C26.1688 10.4876 22.6864 10.4876 20.5385 12.6354L19.4761 13.6979ZM19.4515 26.3977L24.3878 21.4615L25.8386 20.0604L25.84 20.0619L26.9025 18.9994C28.2693 17.6326 28.2693 15.4165 26.9025 14.0497C25.5357 12.6828 23.3196 12.6828 21.9528 14.0497L19.4772 16.5253L19.4699 16.518L19.4688 16.5191L16.9749 14.0251C15.608 12.6583 13.392 12.6583 12.0251 14.0251C10.6583 15.392 10.6583 17.608 12.0251 18.9749L14.5646 21.5143L14.5664 21.5125L19.4515 26.3977Z" fill="#E01563"/>
<circle cx="36" cy="7" r="5.5" fill="#E01563" stroke="white" stroke-width="3"/>
</svg>
