<svg width="133" height="19" viewBox="0 0 133 19" fill="none" xmlns="http://www.w3.org/2000/svg">
<path d="M4.40234 14.8359H11.5625V18H0.289062V0.9375H4.40234V14.8359Z" fill="black"/>
<path d="M26.7561 9.82031C26.7561 11.4844 26.4475 12.957 25.8303 14.2383C25.2131 15.5195 24.3342 16.5078 23.1936 17.2031C22.0608 17.8906 20.7678 18.2344 19.3147 18.2344C17.8616 18.2344 16.5725 17.9023 15.4475 17.2383C14.3225 16.5664 13.4436 15.6094 12.8108 14.3672C12.1858 13.125 11.8577 11.6992 11.8264 10.0898V9.12891C11.8264 7.45703 12.1311 5.98438 12.7405 4.71094C13.3577 3.42969 14.2366 2.44141 15.3772 1.74609C16.5256 1.05078 17.8303 0.703125 19.2913 0.703125C20.7366 0.703125 22.0256 1.04688 23.1584 1.73438C24.2913 2.42188 25.1702 3.40234 25.7952 4.67578C26.428 5.94141 26.7483 7.39453 26.7561 9.03516V9.82031ZM22.5725 9.10547C22.5725 7.41016 22.2873 6.125 21.717 5.25C21.1545 4.36719 20.3459 3.92578 19.2913 3.92578C17.2288 3.92578 16.1389 5.47266 16.0217 8.56641L16.01 9.82031C16.01 11.4922 16.2873 12.7773 16.842 13.6758C17.3967 14.5742 18.2209 15.0234 19.3147 15.0234C20.3538 15.0234 21.1545 14.582 21.717 13.6992C22.2795 12.8164 22.5647 11.5469 22.5725 9.89062V9.10547Z" fill="black"/>
<path d="M42.6059 15.8906C41.9731 16.5938 41.0473 17.1602 39.8286 17.5898C38.6098 18.0195 37.2739 18.2344 35.8208 18.2344C33.5864 18.2344 31.8013 17.5508 30.4653 16.1836C29.1294 14.8164 28.4145 12.9141 28.3208 10.4766L28.3091 9C28.3091 7.32031 28.6059 5.85547 29.1997 4.60547C29.7934 3.34766 30.6411 2.38281 31.7427 1.71094C32.852 1.03125 34.1333 0.691406 35.5864 0.691406C37.7114 0.691406 39.3598 1.17969 40.5317 2.15625C41.7114 3.125 42.3989 4.57422 42.5942 6.50391H38.6333C38.4927 5.55078 38.188 4.87109 37.7192 4.46484C37.2505 4.05859 36.5864 3.85547 35.727 3.85547C34.6958 3.85547 33.8989 4.29297 33.3364 5.16797C32.7739 6.04297 32.4888 7.29297 32.4809 8.91797V9.94922C32.4809 11.6523 32.77 12.9336 33.3481 13.793C33.9341 14.6445 34.852 15.0703 36.102 15.0703C37.1723 15.0703 37.9692 14.832 38.4927 14.3555V11.707H35.6333V8.88281H42.6059V15.8906Z" fill="black"/>
<path d="M59.2058 9.82031C59.2058 11.4844 58.8972 12.957 58.28 14.2383C57.6628 15.5195 56.7839 16.5078 55.6433 17.2031C54.5105 17.8906 53.2175 18.2344 51.7644 18.2344C50.3112 18.2344 49.0222 17.9023 47.8972 17.2383C46.7722 16.5664 45.8933 15.6094 45.2605 14.3672C44.6355 13.125 44.3073 11.6992 44.2761 10.0898V9.12891C44.2761 7.45703 44.5808 5.98438 45.1902 4.71094C45.8073 3.42969 46.6862 2.44141 47.8269 1.74609C48.9753 1.05078 50.28 0.703125 51.7409 0.703125C53.1862 0.703125 54.4753 1.04688 55.6081 1.73438C56.7409 2.42188 57.6198 3.40234 58.2448 4.67578C58.8777 5.94141 59.198 7.39453 59.2058 9.03516V9.82031ZM55.0222 9.10547C55.0222 7.41016 54.737 6.125 54.1667 5.25C53.6042 4.36719 52.7956 3.92578 51.7409 3.92578C49.6784 3.92578 48.5886 5.47266 48.4714 8.56641L48.4597 9.82031C48.4597 11.4922 48.737 12.7773 49.2917 13.6758C49.8464 14.5742 50.6706 15.0234 51.7644 15.0234C52.8034 15.0234 53.6042 14.582 54.1667 13.6992C54.7292 12.8164 55.0144 11.5469 55.0222 9.89062V9.10547Z" fill="black"/>
<path d="M66.0439 8.8125L67.8838 5.32031H71.9853L68.6455 11.4961L72.1494 18H68.0244L66.0322 14.25L64.0752 18H59.9267L63.4423 11.4961L60.1142 5.32031H64.2627L66.0439 8.8125Z" fill="black"/>
<path d="M77.3117 14.8359H84.4719V18H73.1984V0.9375H77.3117V14.8359Z" fill="black"/>
<path d="M99.6655 9.82031C99.6655 11.4844 99.3569 12.957 98.7397 14.2383C98.1225 15.5195 97.2436 16.5078 96.103 17.2031C94.9702 17.8906 93.6772 18.2344 92.2241 18.2344C90.7709 18.2344 89.4819 17.9023 88.3569 17.2383C87.2319 16.5664 86.353 15.6094 85.7202 14.3672C85.0952 13.125 84.767 11.6992 84.7358 10.0898V9.12891C84.7358 7.45703 85.0405 5.98438 85.6498 4.71094C86.267 3.42969 87.1459 2.44141 88.2866 1.74609C89.435 1.05078 90.7397 0.703125 92.2006 0.703125C93.6459 0.703125 94.935 1.04688 96.0678 1.73438C97.2006 2.42188 98.0795 3.40234 98.7045 4.67578C99.3373 5.94141 99.6577 7.39453 99.6655 9.03516V9.82031ZM95.4819 9.10547C95.4819 7.41016 95.1967 6.125 94.6264 5.25C94.0639 4.36719 93.2553 3.92578 92.2006 3.92578C90.1381 3.92578 89.0483 5.47266 88.9311 8.56641L88.9194 9.82031C88.9194 11.4922 89.1967 12.7773 89.7514 13.6758C90.3061 14.5742 91.1303 15.0234 92.2241 15.0234C93.2631 15.0234 94.0639 14.582 94.6264 13.6992C95.1889 12.8164 95.4741 11.5469 95.4819 9.89062V9.10547Z" fill="black"/>
<path d="M115.515 15.8906C114.882 16.5938 113.957 17.1602 112.738 17.5898C111.519 18.0195 110.183 18.2344 108.73 18.2344C106.496 18.2344 104.711 17.5508 103.375 16.1836C102.039 14.8164 101.324 12.9141 101.23 10.4766L101.218 9C101.218 7.32031 101.515 5.85547 102.109 4.60547C102.703 3.34766 103.55 2.38281 104.652 1.71094C105.761 1.03125 107.043 0.691406 108.496 0.691406C110.621 0.691406 112.269 1.17969 113.441 2.15625C114.621 3.125 115.308 4.57422 115.504 6.50391H111.543C111.402 5.55078 111.097 4.87109 110.629 4.46484C110.16 4.05859 109.496 3.85547 108.636 3.85547C107.605 3.85547 106.808 4.29297 106.246 5.16797C105.683 6.04297 105.398 7.29297 105.39 8.91797V9.94922C105.39 11.6523 105.679 12.9336 106.257 13.793C106.843 14.6445 107.761 15.0703 109.011 15.0703C110.082 15.0703 110.879 14.832 111.402 14.3555V11.707H108.543V8.88281H115.515V15.8906Z" fill="black"/>
<path d="M132.115 9.82031C132.115 11.4844 131.807 12.957 131.189 14.2383C130.572 15.5195 129.693 16.5078 128.553 17.2031C127.42 17.8906 126.127 18.2344 124.674 18.2344C123.221 18.2344 121.932 17.9023 120.807 17.2383C119.682 16.5664 118.803 15.6094 118.17 14.3672C117.545 13.125 117.217 11.6992 117.185 10.0898V9.12891C117.185 7.45703 117.49 5.98438 118.1 4.71094C118.717 3.42969 119.596 2.44141 120.736 1.74609C121.885 1.05078 123.189 0.703125 124.65 0.703125C126.096 0.703125 127.385 1.04688 128.518 1.73438C129.65 2.42188 130.529 3.40234 131.154 4.67578C131.787 5.94141 132.107 7.39453 132.115 9.03516V9.82031ZM127.932 9.10547C127.932 7.41016 127.646 6.125 127.076 5.25C126.514 4.36719 125.705 3.92578 124.65 3.92578C122.588 3.92578 121.498 5.47266 121.381 8.56641L121.369 9.82031C121.369 11.4922 121.646 12.7773 122.201 13.6758C122.756 14.5742 123.58 15.0234 124.674 15.0234C125.713 15.0234 126.514 14.582 127.076 13.6992C127.639 12.8164 127.924 11.5469 127.932 9.89062V9.10547Z" fill="black"/>
</svg>
