<svg width="18" height="16" viewBox="0 0 18 16" fill="none" xmlns="http://www.w3.org/2000/svg">
<path fill-rule="evenodd" clip-rule="evenodd" d="M9.01022 2.64306L8.10439 1.73723C6.31449 -0.0526699 3.41248 -0.0526699 1.62258 1.73723C-0.167324 3.52714 -0.167324 6.42914 1.62258 8.21905L8.98827 15.5847L8.98977 15.5832L9.01172 15.6052L16.3774 8.23949C18.1673 6.44959 18.1673 3.54758 16.3774 1.75768C14.5875 -0.0322231 11.6855 -0.0322231 9.8956 1.75768L9.01022 2.64306ZM8.98977 13.2262L13.1033 9.11269L14.3123 7.94516L14.3135 7.94636L15.1989 7.06098C16.3379 5.92195 16.3379 4.07522 15.1989 2.93619C14.0599 1.79716 12.2131 1.79716 11.0741 2.93619L9.01112 4.99919L9.00508 4.99316L9.00419 4.99405L6.92588 2.91574C5.78685 1.77672 3.94012 1.77672 2.80109 2.91574C1.66206 4.05477 1.66206 5.90151 2.80109 7.04053L4.91728 9.15672L4.91878 9.15522L8.98977 13.2262Z" fill="black"/>
</svg>
