<svg width="84" height="90" viewBox="0 0 84 90" fill="none" xmlns="http://www.w3.org/2000/svg">
<path d="M9.74122 74.5186V66.7561L6.43577 72.3109L3.09479 66.7561V74.5186H0.642365V63.5158H3.84118L6.47132 68.0024L8.99483 63.5158H12.2292V74.5186H9.74122ZM14.2906 63.5514H16.7431V74.5542H14.2906V63.5514ZM17.8449 63.5514H26.2684V65.8659H23.2829V74.5542H20.7594V65.8659H17.8449V63.5514ZM27.1214 74.4118V72.0973C27.6546 72.2041 28.863 72.4178 30.3558 72.4178C31.5998 72.4178 32.2395 72.2753 32.2395 71.5276C32.2395 70.7442 31.7064 70.6374 29.9293 69.7828C28.1877 68.9994 26.9082 68.3229 26.9082 66.4357C26.9082 64.1211 28.3299 63.3378 31.0311 63.3378C32.4528 63.3378 33.448 63.4446 34.1233 63.5514V65.8659C33.4835 65.8303 32.3817 65.6523 31.1377 65.6523C29.6805 65.6523 29.3606 65.7947 29.3606 66.4357C29.3606 67.0766 30.1425 67.3615 31.351 67.8956C33.1637 68.7502 34.6564 69.4267 34.6564 71.492C34.6564 73.6996 33.3058 74.6967 30.3558 74.6967C29.2184 74.6967 28.1877 74.5899 27.1214 74.4118ZM36.1848 70.8154V63.5514H38.6372V70.7086C38.6372 71.9549 39.3836 72.3822 40.5565 72.3822C41.6938 72.3822 42.4758 71.9549 42.4758 70.7086V63.5514H44.9282V70.8154C44.9282 73.486 43.1866 74.6967 40.5209 74.6967C37.8552 74.6967 36.1848 73.486 36.1848 70.8154ZM47.0607 63.5514H51.859C54.0981 63.5514 55.3776 64.406 55.3776 66.3644C55.3776 67.9312 54.4891 68.4653 53.6361 68.7858C54.6313 69.1062 55.662 69.6404 55.662 71.4564C55.662 73.3792 54.5246 74.5542 52.0722 74.5542H47.0963V63.5514H47.0607ZM51.5035 68.0024C52.4987 68.0024 52.8541 67.4683 52.8541 66.7561C52.8541 65.8659 52.4276 65.6523 51.5035 65.6523H49.5131V68.0024H51.5035ZM51.6457 72.489C52.6409 72.489 53.0674 72.1329 53.0674 71.1715C53.0674 70.3169 52.712 69.9608 51.7523 69.9608H49.5131V72.489H51.6457ZM57.0837 63.5514H59.5361V74.5542H57.0837V63.5514ZM61.3132 74.4118V72.0973C61.8464 72.2041 63.0548 72.4178 64.5476 72.4178C65.7916 72.4178 66.4313 72.2753 66.4313 71.5276C66.4313 70.7442 65.8982 70.6374 64.1211 69.7828C62.3795 68.9994 61.1 68.3229 61.1 66.4357C61.1 64.1211 62.5217 63.3378 65.2229 63.3378C66.6446 63.3378 67.6398 63.4446 68.3151 63.5514V65.8659C67.6753 65.8303 66.5735 65.6523 65.3295 65.6523C63.8723 65.6523 63.5524 65.7947 63.5524 66.4357C63.5524 67.0766 64.3343 67.3615 65.5428 67.8956C67.3554 68.7502 68.8482 69.4267 68.8482 71.492C68.8482 73.6996 67.4976 74.6967 64.5476 74.6967C63.4458 74.6967 62.3795 74.5899 61.3132 74.4118ZM76.5965 74.5186V70.1745H72.6868V74.5186H70.2344V63.5158H72.6868V67.86H76.5965V63.5158H79.0489V74.5186H76.5965ZM81.0748 63.5514H83.5272V74.5542H81.0748V63.5514ZM21.2214 89.3671V81.6046L17.916 87.1594L14.6105 81.6046V89.3671H12.087V78.3643H15.2858L17.916 82.8153L20.475 78.3643H23.7094V89.3671H21.2214ZM25.4154 83.8479C25.4154 79.931 26.9437 78.1862 30.1781 78.1862C33.4124 78.1862 34.9408 79.931 34.9408 83.8479C34.9408 87.7648 33.4124 89.5095 30.1781 89.5095C26.9437 89.5095 25.4154 87.7648 25.4154 83.8479ZM32.3106 83.8479C32.3106 81.6046 31.9552 80.4295 30.107 80.4295C28.3299 80.4295 27.9034 81.569 27.9034 83.8479C27.9034 86.0912 28.2588 87.2662 30.107 87.2662C31.9552 87.2662 32.3106 86.0912 32.3106 83.8479ZM35.2962 78.3643H43.7197V80.6788H40.7342V89.3671H38.2818V80.6788H35.2962V78.3643ZM44.1107 83.8479C44.1107 79.931 45.639 78.1862 48.8734 78.1862C52.1077 78.1862 53.6361 79.931 53.6361 83.8479C53.6361 87.7648 52.1077 89.5095 48.8734 89.5095C45.639 89.5095 44.1107 87.7648 44.1107 83.8479ZM51.0059 83.8479C51.0059 81.6046 50.6505 80.4295 48.8023 80.4295C46.9896 80.4295 46.5987 81.569 46.5987 83.8479C46.5987 86.0912 46.9541 87.2662 48.8023 87.2662C50.6505 87.2662 51.0059 86.0912 51.0059 83.8479ZM55.271 78.3643H59.7138C62.0596 78.3643 63.5879 79.2545 63.5879 81.8895C63.5879 83.6342 62.7349 84.7025 61.3488 85.0229L64.05 89.3671H61.1711L58.8608 85.4502H57.759V89.3671H55.3066V78.3643H55.271ZM59.6072 83.2782C60.709 83.2782 61.0644 82.7084 61.0644 81.8538C61.0644 80.9993 60.709 80.4295 59.6072 80.4295H57.7945V83.2426H59.6072V83.2782ZM65.0452 89.1891V86.8746C65.5783 86.9814 66.7868 87.195 68.2795 87.195C69.5235 87.195 70.1633 87.0526 70.1633 86.3048C70.1633 85.5215 69.6301 85.4146 67.853 84.56C66.1115 83.7767 64.8319 83.1001 64.8319 81.2129C64.8319 78.8984 66.2536 78.115 68.9548 78.115C70.3765 78.115 71.3717 78.2219 72.047 78.3287V80.6432C71.4073 80.6076 70.3055 80.4295 69.0615 80.4295C67.6042 80.4295 67.2843 80.572 67.2843 81.1773C67.2843 81.8182 68.0663 82.1031 69.2747 82.6372C71.0874 83.4918 72.5802 84.1684 72.5802 86.2336C72.5802 88.4413 71.2296 89.4383 68.2795 89.4383C67.1777 89.5095 66.0759 89.4027 65.0452 89.1891Z" fill="#87CDE3"/>
<path d="M52.4987 18.7211L41.9426 36.9879L31.4221 18.7211L41.9426 0.489868L52.4987 18.7211ZM62.9837 36.9879H41.9071L52.4631 55.2191H73.4687L62.9837 36.9879ZM10.4165 55.2191H31.4221L41.9426 36.9879H20.937L10.4165 55.2191Z" fill="#87CDE3"/>
</svg>
