<svg width="139" height="42" viewBox="0 0 139 42" fill="none" xmlns="http://www.w3.org/2000/svg">
<path d="M138.948 33.8931V33.9131H135.672L127.756 23.3026L119.859 33.9131H116.584L126.108 21.1004L117.407 9.44884H120.663L127.756 18.9383L134.849 9.44884H138.124L129.403 21.0804L138.948 33.8931ZM73.1014 9.44888H69.8462L62.7532 18.9383L55.6602 9.44888H52.385L61.1055 21.1004L51.5611 33.9131H54.8364L62.7532 23.3026L70.6499 33.9131H73.9252V33.8931L64.4009 21.0804L73.1014 9.44888ZM94.1995 26.746C94.1995 31.1504 90.8037 33.8931 85.3383 33.8931H75.2715V22.4417C75.2715 22.4417 70.4692 22.4417 70.1075 22.4417C70.4892 21.9012 71.4738 20.5599 71.9159 19.9993C72.0163 19.9993 75.2715 19.9993 75.2715 19.9993V9.44888H85.3383C92.8131 9.44888 93.3958 14.5339 93.3958 16.0955C93.3958 18.1975 92.2103 20.0193 90.422 20.9803C90.9846 21.2206 91.5271 21.5609 92.0495 22.0014C93.4762 23.1825 94.2196 24.8241 94.1995 26.746ZM78.0645 19.9793C79.2098 19.9793 85.3584 19.9793 85.3584 19.9793C88.714 19.9793 90.643 18.4378 90.643 15.8752C90.643 12.4719 87.3276 11.9914 85.3584 11.9914C85.3584 11.9914 79.1897 11.9914 78.0645 11.9914V19.9793ZM91.4266 26.6859C91.4266 23.1825 88.1313 22.4417 85.3584 22.4417C85.3584 22.4417 79.1897 22.4417 78.0645 22.4417V31.3306C79.2098 31.3306 85.3584 31.3306 85.3584 31.3306C87.6089 31.3306 91.4266 30.73 91.4266 26.6859ZM119.115 21.661C119.115 29.1884 114.253 34.4336 107.3 34.4336C100.308 34.4336 95.4453 29.1884 95.4453 21.661C95.4453 14.1335 100.308 8.8883 107.3 8.8883C114.253 8.8883 119.115 14.1335 119.115 21.661ZM116.302 21.661C116.302 15.655 112.605 11.4709 107.3 11.4709C101.976 11.4709 98.2584 15.655 98.2584 21.661C98.2584 27.6669 101.976 31.8511 107.3 31.8511C112.605 31.8511 116.302 27.6469 116.302 21.661ZM11.7592 3.0489C12.3303 3.02116 13.2171 3.07205 13.7417 3.15993C15.232 3.41897 17.9295 4.36725 19.6798 5.25541C20.5573 5.69948 21.328 6.07418 21.3838 6.08344C21.4441 6.09733 22.2612 5.73188 23.2037 5.27393C26.3283 3.75668 29.2347 2.95176 31.2311 3.05357L32.234 3.10445L31.7976 2.83614C30.3258 1.93413 27.7119 0.962711 25.4926 0.495501C23.4359 0.0606579 19.5127 0.0652872 17.4234 0.504759C15.5663 0.893312 14.1967 1.34667 12.5578 2.11918C10.5846 3.0489 10.5289 3.10904 11.7592 3.0489ZM14.9303 12.5781L15.7474 11.5742L14.2478 10.2235C11.6803 7.90599 10.0274 6.76807 8.47674 6.24535C7.19997 5.81513 7.10712 5.84291 6.05783 6.92998C3.59715 9.48341 1.55432 13.6281 0.98325 17.2131C0.523614 20.0904 0.467897 20.8906 0.625755 22.2923C1.10398 26.5341 2.08826 29.4715 4.03359 32.4505C4.83214 33.6717 5.05036 33.903 4.81359 33.2785C4.46074 32.3534 4.79039 30.1237 5.61213 27.908C7.1211 23.828 11.1278 17.2316 14.9303 12.5781ZM38.46 8.84504C37.3875 7.34164 36.0597 5.96778 35.6836 5.96778C35.0708 5.96778 33.6501 6.51362 32.6519 7.13348C31.389 7.91525 30.2191 8.84041 28.5337 10.3854L27.243 11.5696L28.4362 13.0638C32.2247 17.8145 36.3522 24.8087 37.5825 28.5648C38.1536 30.2995 38.395 32.0203 38.2047 32.9547C38.0607 33.6717 38.0607 33.6717 38.3207 33.3479C38.8315 32.7003 39.9921 30.7158 40.4611 29.6935C41.0832 28.3243 41.7239 26.312 42.0257 24.7624C42.3925 22.8751 42.36 18.8183 41.9607 16.9217C41.3432 13.9889 40.1222 11.1672 38.46 8.84504ZM21.5463 17.0281C21.1424 16.9402 17.3956 20.28 14.7028 23.1295C9.96712 28.1439 7.19536 32.5476 7.19536 35.0595C7.19536 36.313 7.72465 36.9375 10.0693 38.464C12.8689 40.2866 16.1235 41.4384 19.3363 41.7437C22.0245 42.0028 25.293 41.6697 27.7816 40.8833C30.7994 39.9351 34.9083 37.4602 35.5722 36.1928C36.445 34.5275 34.7272 30.7898 30.9944 26.2196C28.6358 23.3376 22.3356 17.2038 21.5463 17.0281Z" fill="#87CDE3"/>
</svg>
