<svg width="121" height="34" viewBox="0 0 121 34" fill="none" xmlns="http://www.w3.org/2000/svg">
<path d="M116.757 15.0768V9.77127H111.396V15.0768H108.465V2.40045H111.396V7.45676H116.757V2.40045H119.723V15.0768H116.757ZM53.4634 2.40045V10.341C53.4634 11.2312 53.6064 11.979 53.8566 12.5843C54.1067 13.1896 54.4641 13.6881 54.9645 14.0798C55.4291 14.4715 56.0009 14.7564 56.6799 14.9344C57.359 15.1124 58.1095 15.2193 58.9315 15.2193C59.7535 15.2193 60.504 15.1124 61.1473 14.9344C61.7906 14.7564 62.3267 14.4715 62.7913 14.0798C63.2201 13.6881 63.5775 13.1896 63.8277 12.5843C64.0779 11.979 64.1851 11.1956 64.1851 10.341V2.40045H61.4332V10.2342C61.4332 11.0175 61.2188 11.6941 60.8256 12.157C60.4325 12.6555 59.7892 12.8692 58.9315 12.8692C58.0737 12.8692 57.4662 12.6199 57.0373 12.157C56.6442 11.6941 56.4298 11.0532 56.4298 10.2342V2.40045H53.4634ZM44.9934 15.0768V4.78618H41.5267V2.43606H51.3906V3.57551C51.3906 4.25206 50.8188 4.82179 50.1397 4.82179H47.8882V15.1124H44.9934V15.0768ZM92.2043 2.40045H95.1348V15.0768H92.2043V2.40045ZM82.4118 9.16594L82.5191 9.30837L86.2716 14.1154C86.7362 14.7208 87.451 15.0768 88.2373 15.0768H90.5603L85.1995 8.27574L85.128 8.16892L85.1995 8.0621L89.6311 2.40045H86.5933L82.5548 7.84845L82.4476 7.99088V7.77723V2.40045H79.517V15.0768H82.4476V9.41519L82.4118 9.16594ZM75.6572 15.0768C74.7995 15.0768 73.9775 14.6139 73.5129 13.8662L71.2256 10.0917H69.7603V15.0412H66.8297V2.40045H72.0833C73.4414 2.40045 74.4778 2.75653 75.2283 3.43308C75.9431 4.10963 76.3362 5.07104 76.3362 6.2461C76.3362 6.85143 76.1933 7.45677 75.8716 8.02649C75.55 8.59622 75.0139 9.09473 74.2277 9.4508L74.049 9.52202L77.6228 15.0412H75.6572V15.0768ZM69.7603 8.20453H71.4758C72.0833 8.20453 72.5479 8.02649 72.8696 7.70602C73.1912 7.38555 73.3342 6.95826 73.3342 6.42414C73.3342 5.89002 73.1912 5.46272 72.8696 5.14225C72.5837 4.82178 72.0833 4.64375 71.4758 4.64375H69.7603V8.20453ZM97.5293 14.5427V12.1214C98.4585 12.5487 99.6737 12.976 100.925 12.976C102.354 12.976 103.069 12.4775 103.069 11.5517C103.069 10.4478 102.104 10.341 100.138 9.48641C98.8159 8.88108 97.5293 7.99088 97.5293 5.85441C97.5293 3.39747 99.4235 2.22241 102.032 2.22241C103.426 2.22241 104.606 2.54288 105.285 2.79214V5.14225C104.606 4.82178 103.426 4.46571 102.247 4.46571C100.96 4.46571 100.353 4.92861 100.353 5.74759C100.353 6.60218 101.067 6.88704 102.39 7.34994C104.07 8.16892 106.035 8.56061 106.035 11.4092C106.035 13.8662 104.07 15.2193 101.425 15.2193C99.8166 15.2549 98.53 14.97 97.5293 14.5427ZM102.14 31.5989V18.9225H110.109V20.0619C110.109 20.7385 109.573 21.2726 108.894 21.2726H105.106V23.9788H109.359V26.0797H105.106V29.1775H110.109V31.5277L102.14 31.5989ZM73.084 31.5989V18.9225H74.5136C75.3356 18.9225 76.0146 19.599 76.0146 20.418V29.2844H80.6964V31.5633H73.084V31.5989ZM54.9287 31.5989V18.9581H57.8593V31.5989H54.9287ZM69.3672 31.5989C68.5095 31.5989 67.6875 31.136 67.2229 30.3882L64.9356 26.6138H63.4703V31.5989H60.5397V18.9581H65.7576C67.1157 18.9581 68.1521 19.3142 68.9026 19.9907C69.6174 20.6673 70.0105 21.6287 70.0105 22.8037C70.0105 23.4091 69.8675 24.0144 69.5459 24.5841C69.2242 25.1539 68.6882 25.6524 67.9019 26.0084L67.7232 26.0797L71.2971 31.5989H69.3672ZM63.4703 24.7266H65.1858C65.7933 24.7266 66.2579 24.5485 66.5796 24.2281C66.9012 23.9076 67.0442 23.4803 67.0442 22.9462C67.0442 22.4121 66.9012 21.9848 66.5796 21.6643C66.2937 21.3438 65.7933 21.1658 65.1858 21.1658H63.4703V24.7266ZM48.46 18.9225H45.1006L40.2758 31.5989H42.3844C42.9205 31.5989 43.3851 31.2428 43.5638 30.7443L44.0642 29.2488H49.2105L49.9611 31.5989H53.1418L48.46 18.9225ZM44.8147 26.9699L45.9583 23.7652C46.2085 23.053 46.4587 22.2696 46.6373 21.7355H46.6731C46.816 22.3052 47.0662 23.0174 47.3521 23.7652L48.46 26.9699H44.8147ZM112.432 31.0648V28.6434C113.362 29.0707 114.577 29.498 115.828 29.498C117.257 29.498 117.972 28.9995 117.972 28.0737C117.972 26.9699 117.007 26.863 115.041 26.0084C113.719 25.4031 112.432 24.5129 112.432 22.3764C112.432 19.9195 114.327 18.7444 116.935 18.7444C118.329 18.7444 119.509 19.0649 120.188 19.3142V21.6643C119.509 21.3438 118.329 20.9877 117.15 20.9877C115.863 20.9877 115.256 21.4506 115.256 22.2696C115.256 23.1242 115.971 23.4091 117.293 23.872C118.973 24.691 120.938 25.0826 120.938 27.9313C120.938 30.3882 118.973 31.7413 116.328 31.7413C114.72 31.7769 113.433 31.4921 112.432 31.0648ZM88.2373 18.9581H90.0599C90.9177 18.9581 91.7397 19.421 92.1685 20.1332L95.7067 25.7948C96.0998 26.4357 96.5644 27.2547 96.8503 27.8601H96.9218C96.886 27.2903 96.8503 26.507 96.8503 25.9372V18.9581H99.4235V31.5989H96.207L91.8826 24.7622C91.4895 24.1212 91.0606 23.3735 90.7747 22.8037H90.739C90.7747 23.3379 90.8104 24.0144 90.8104 24.6197V31.5989H88.2373V18.9581ZM82.5905 18.9581H85.5211V31.5989H82.5905V18.9581Z" fill="#87CDE3"/>
<path d="M18.2608 0.940565C26.4092 1.79515 32.7707 8.66747 32.7707 16.9997C32.7707 25.9373 25.5158 33.1657 16.5453 33.1657C7.57491 33.1657 0.319946 25.9373 0.319946 16.9997C0.319946 8.06213 7.57491 0.83374 16.5453 0.83374C17.1172 0.83374 17.689 0.869349 18.2608 0.940565ZM19.0828 32.0262C27.4099 30.6375 33.0566 22.7682 31.6271 14.4715C30.4477 7.56362 24.801 2.50731 18.1536 1.83076C16.7955 1.68833 15.4017 1.72394 14.0079 1.97319C12.3282 2.25806 10.7914 2.79217 9.39759 3.53994C16.7598 6.03249 20.691 9.80692 20.9769 13.6526C21.1199 16.0383 20.012 17.7831 18.5467 19.1718L28.9467 18.4596C29.2326 18.424 29.3398 18.7801 28.9824 18.8869L4.17973 25.9373C6.71718 29.3912 10.6127 31.7057 14.9728 32.1686C16.2952 32.3111 17.689 32.2755 19.0828 32.0262ZM12.2924 17.3558C13.6505 12.2639 12.1137 6.92268 8.3969 4.10966C3.35774 7.27876 0.427162 13.2965 1.49932 19.5279C1.85671 21.5931 2.60723 23.4803 3.64365 25.1539C7.57491 24.0501 11.0416 21.9848 12.2924 17.3558Z" fill="#87CDE3"/>
<path d="M19.0827 32.0262C27.4099 30.6375 33.0566 22.7682 31.627 14.4715C30.4477 7.5636 24.8009 2.50729 18.1535 1.83074C16.7954 1.68831 15.4016 1.72392 14.0078 1.97317C12.3281 2.25804 10.7913 2.79215 9.39752 3.53992C16.7597 6.03247 20.691 9.8069 20.9769 13.6526C21.1198 16.0383 20.0119 17.7831 18.5466 19.1718L28.9466 18.4596C29.2325 18.424 29.3398 18.7801 28.9824 18.8869L4.17966 25.9373C6.71711 29.3912 10.6126 31.7057 14.9728 32.1686C16.2951 32.3111 17.6889 32.2755 19.0827 32.0262ZM12.2924 17.3558C13.6504 12.2638 12.1137 6.92267 8.39683 4.10965C3.35767 7.27875 0.427092 13.2965 1.49925 19.5278C1.85664 21.5931 2.60716 23.4803 3.64358 25.1539C7.57484 24.05 11.0415 21.9848 12.2924 17.3558Z" fill="white" fill-opacity="0.27"/>
</svg>
