<svg width="128" height="36" viewBox="0 0 128 36" fill="none" xmlns="http://www.w3.org/2000/svg">
<path d="M98.4595 31.9124C100.225 32.0431 102.057 32.2386 103.757 32.3048V1.02438H98.4595V31.9124ZM12.1247 20.248L5.19247 0.959574H0.0904083V35.0406C1.85626 34.8451 3.68716 34.5189 5.38796 34.3241V15.7514L11.6015 33.6077C13.5639 33.4122 15.4606 33.2153 17.4226 33.0216V0.959574H12.1247V20.248ZM22.7209 32.4989C27.6264 32.1086 32.662 31.6518 37.6333 31.3918V26.1133C34.4282 26.3088 31.2893 26.505 28.0842 26.7001V18.7496C30.1113 18.7496 32.924 18.6196 35.3438 18.6196V13.3411C33.3818 13.3411 30.3075 13.3411 28.0842 13.4711V6.30289H37.6333V1.02438H22.7209V32.4989ZM41.0338 6.30289H46.6587V30.8702C48.4246 30.7402 50.2562 30.7402 51.9566 30.6747V6.17221H57.5812V0.958862H41.0334V6.30289H41.0338ZM61.0482 30.6747H66.3458V18.4234H73.6715V13.2105H66.4119V6.30324H76.0256V1.02474H61.0475L61.0482 30.6747ZM127.499 0.959574H121.548L117.689 9.95269L114.222 0.959574H108.336L114.55 16.9902L107.748 32.6951C109.579 32.8906 111.541 33.0868 113.372 33.2812L117.361 24.0926L121.222 34.1934C123.249 34.5182 125.341 34.7137 127.368 35.0398C127.368 35.0398 122.816 22.9755 120.501 17.1198L127.499 0.959574ZM84.7902 0.959574H79.4923V30.8702C84.3981 31.0664 89.2382 31.2618 94.0118 31.588V26.3088C90.9376 26.1133 87.8644 25.9185 84.7902 25.7879V0.959574Z" fill="#87CDE3"/>
</svg>
