<svg width="118" height="45" viewBox="0 0 118 45" fill="none" xmlns="http://www.w3.org/2000/svg">
<path d="M14.1584 43.759V30.0143L24.2524 0.922729H19.9873L12.1325 24.1747L5.30831 4.94642H0.581177L9.85774 29.8719V43.759H14.1584Z" fill="#61C1DF"/>
<path d="M32.7114 38.4179C31.9295 39.593 30.4722 40.59 29.015 40.59C26.8469 40.59 25.8162 38.5247 25.8162 35.3912C25.8162 31.8661 26.9535 29.5159 32.2138 29.5159H32.7114V38.4179ZM36.8699 37.5989V24.7445C36.8699 18.1214 34.2042 16.0562 29.3704 16.0562C26.6337 16.0562 24.1101 17.1956 22.8662 18.2283L23.6836 21.9671C25.1053 20.7208 26.9535 19.5814 29.1216 19.5814C31.503 19.5814 32.7114 21.0769 32.7114 24.6733V26.3112H32.1072C24.4656 26.3112 21.48 29.9788 21.48 35.8897C21.48 41.2665 24.1457 44.1864 28.0554 44.1864C30.4367 44.1864 31.965 43.1537 33.1379 41.6226H33.4223C33.4578 42.3348 33.6355 43.1894 33.8132 43.7947H37.403C37.1542 42.4772 36.8699 40.1983 36.8699 37.5989ZM46.3597 22.5368C47.3193 21.1837 48.8476 19.8306 50.6248 19.8306C52.2597 19.8306 53.1838 20.5428 53.1838 22.5724V43.7591H57.4489V22.2163C57.4489 18.0502 55.5652 16.0206 51.9754 16.0206C49.4163 16.0206 47.3904 17.6941 46.6085 18.7268H46.3597V16.341H42.1301V43.7591H46.3597V22.5368ZM69.9243 44.1508C72.1634 44.1508 73.6562 43.1181 74.8647 41.587H75.149L75.4689 43.7591H78.6322V4.94653H74.4026V17.0532C73.5851 16.4479 72.2345 16.0206 70.955 16.0206C65.4815 16.0206 61.6784 20.9701 61.6784 31.1183C61.6429 39.593 64.5929 44.1508 69.9243 44.1508ZM74.4026 38.4535C73.6918 39.5217 72.59 40.5544 70.4574 40.5544C67.3652 40.5544 66.1923 36.6375 66.1923 30.2281C66.1923 24.6377 67.8273 19.4745 71.2038 19.4745C72.6255 19.4745 73.5496 19.9018 74.4026 20.792V38.4535ZM98.5359 41.9431L97.5762 38.7028C96.51 39.4505 94.7684 40.5188 92.3871 40.5188C89.0105 40.5188 87.3045 37.2785 87.3045 31.0827H98.6781V28.7326C98.6781 19.4389 95.6925 16.0206 91.1431 16.0206C85.3497 16.0206 82.8972 22.43 82.8972 31.2251C82.8972 39.6642 86.3804 44.1508 91.9961 44.1508C94.6618 44.1508 96.7943 43.2962 98.5359 41.9431ZM91.1075 19.5101C93.5244 19.5101 94.3064 22.9285 94.3064 27.5931H87.3045C87.5888 22.7148 88.5129 19.5101 91.1075 19.5101ZM112.895 16.4123L109.163 26.3468L105.644 16.4123H101.273L106.426 29.6228L100.74 43.7947H104.898L109.021 32.507L113.25 43.7947H117.658L111.971 29.2311L117.053 16.4123H112.895Z" fill="#87CDE3"/>
</svg>
