<svg width="20" height="16" viewBox="0 0 20 16" fill="none" xmlns="http://www.w3.org/2000/svg">
<path d="M6.5002 15.5177C13.605 15.5177 17.4903 9.63155 17.4903 4.52755C17.4903 4.36037 17.4869 4.19389 17.4794 4.02832C18.2335 3.48305 18.889 2.80261 19.4062 2.0281C18.7141 2.33585 17.9692 2.54275 17.188 2.63635C17.9854 2.15797 18.5977 1.40154 18.8864 0.49981C18.1401 0.942271 17.3136 1.26372 16.4337 1.43735C15.7289 0.686558 14.7253 0.217041 13.6141 0.217041C11.4811 0.217041 9.75124 1.94682 9.75124 4.0791C9.75124 4.38236 9.78521 4.6771 9.85141 4.95987C6.64112 4.79834 3.79432 3.26142 1.88943 0.924194C1.55784 1.49491 1.36649 2.15809 1.36649 2.8657C1.36649 4.20563 2.04843 5.38886 3.08532 6.08082C2.45163 6.06136 1.85638 5.88739 1.33598 5.59783C1.3354 5.61407 1.3354 5.62984 1.3354 5.64711C1.3354 7.51781 2.66681 9.07972 4.43446 9.43364C4.10979 9.52195 3.76818 9.5695 3.41587 9.5695C3.16741 9.5695 2.92517 9.54509 2.68984 9.49984C3.18158 11.0346 4.60763 12.1514 6.29825 12.1827C4.97617 13.2189 3.31076 13.8361 1.50073 13.8361C1.18941 13.8361 0.881657 13.8183 0.579315 13.7826C2.28883 14.8783 4.31875 15.5178 6.50032 15.5178" fill="#E01563"/>
</svg>
